# xmcd
#
# Track frame offsets: 
#        150
#        17589
#        34478
#        52406
#        69755
#        87867
#        108400
#        124578
#        141330
#        159594
#
# Disc length: 2376 seconds
#
# Revision: 0
# Processed by: cddbd v1.5.2PL0 Copyright (c) Steve Scherf et al.
# Submitted via: ExactAudioCopy v0.99pb4
#
DISCID=8709460a
DTITLE=Omar Cunningham - Growing Pains
DYEAR=2011
DGENRE=Soul
TTITLE0=Let Me See You Shake Your Jelly
TTITLE1=Find A Good Woman
TTITLE2=Here I Am
TTITLE3=If We Can't Get Along
TTITLE4=I'm Your Maintenance Man
TTITLE5=That's A Lie
TTITLE6=What You Want With My Moma
TTITLE7=Do Right
TTITLE8=Mr. Lowdown
TTITLE9=Gotta Keep (Do You Know Him)
EXTD=
EXTT0=
EXTT1=
EXTT2=
EXTT3=
EXTT4=
EXTT5=
EXTT6=
EXTT7=
EXTT8=
EXTT9=
PLAYORDER=
